<svg xmlns="http://www.w3.org/2000/svg" width="960" height="540" viewBox="0 0 960 540">
  <rect width="960" height="540" fill="#0f172a"/>
  <rect x="0" y="0" width="960" height="64" fill="#1e293b"/>
  <circle cx="32" cy="32" r="10" fill="#6366f1"/>
  <rect x="56" y="24" width="140" height="16" rx="4" fill="#475569"/>
  <rect x="0" y="64" width="220" height="476" fill="#111827"/>
  <rect x="24" y="96" width="172" height="14" rx="4" fill="#334155"/>
  <rect x="24" y="128" width="172" height="14" rx="4" fill="#334155"/>
  <rect x="24" y="160" width="172" height="14" rx="4" fill="#334155"/>
  <rect x="24" y="192" width="172" height="14" rx="4" fill="#334155"/>
  <rect x="252" y="96" width="200" height="110" rx="8" fill="#1e293b"/>
  <rect x="468" y="96" width="200" height="110" rx="8" fill="#1e293b"/>
  <rect x="684" y="96" width="252" height="110" rx="8" fill="#1e293b"/>
  <rect x="252" y="222" width="684" height="270" rx="8" fill="#1e293b"/>
  <text x="480" y="360" font-family="sans-serif" font-size="22" fill="#64748b" text-anchor="middle">
    Dashboard screenshot placeholder — replace with a real capture
  </text>
</svg>
